<svg aria-hidden="true" style="position: absolute; width: 0; height: 0; overflow: hidden;"
    version="1.1" xmlns="http://www.w3.org/2000/svg" xmlns:xlink="http://www.w3.org/1999/xlink">
    <defs>
        <symbol id="icon-Logo" viewBox="0 0 132 32">
            <path fill="#0E77F1" d="M0 15.451v7.756c0 1.405 1.147 2.545 2.562 2.545h6.915v-13.75l-9.478 3.449z"></path>
            <path fill="#0E77F1" d="M9.873 12.002l3.385 5.048v8.702l-3.385-4.617v-9.133z"></path>
            <path fill="#0E77F1" d="M13.654 9.768v15.984h9.482l-0.005-19.433-9.478 3.449z"></path>
            <path fill="#0E77F1" d="M23.526 6.319l3.854 6.646v12.787l-3.852-6.837-0.002-12.597z"></path>
            <path fill="#0E77F1" d="M27.776 3.907v21.845h8.167c1.415 0 2.562-1.139 2.562-2.545v-23.207l-10.729 3.907z"></path>
            <path d="M47.074 6.983h9.134c2.076 0 3.737 0.577 4.954 1.759 1.245 1.155 1.854 2.694 1.854 4.591 0 1.952-0.637 3.491-1.91 4.673-1.245 1.182-2.961 1.759-5.093 1.759h-4.374v5.95h-4.566v-18.733zM51.641 15.973h4.041c1.771 0 2.851-1.017 2.851-2.584 0-1.512-1.107-2.529-2.851-2.529h-4.041v5.113z"></path>
            <path d="M68.895 4.234v16.467c0 0.742 0.526 1.209 1.328 1.209 0.332 0 0.858-0.137 1.606-0.385l0.692 3.436c-1.19 0.578-2.269 0.852-3.266 0.852-2.878 0-4.788-1.924-4.788-4.783v-16.797h4.429z"></path>
            <path d="M86.648 19.629h-10.186c0.36 1.65 1.523 2.667 2.99 2.667 1.384 0 2.381-0.523 2.962-1.595l3.93 0.797c-1.191 2.859-3.654 4.316-6.893 4.316-2.048 0-3.792-0.687-5.203-2.034-1.412-1.374-2.131-3.134-2.131-5.278 0-2.117 0.72-3.876 2.131-5.251s3.155-2.062 5.231-2.062c2.021 0 3.709 0.66 5.066 2.007s2.076 3.107 2.103 5.306v1.127zM76.545 16.935h5.73c-0.416-1.429-1.467-2.172-2.796-2.172-1.301 0-2.519 0.825-2.934 2.172z"></path>
            <path d="M98.367 11.52l-0.194 4.398h-0.803c-3.183 0-4.788 1.732-4.788 5.168v4.658h-4.429v-14.562h4.429v3.059c1.135-1.897 2.74-2.832 4.788-2.832 0.36 0 0.692 0.027 0.997 0.11z"></path>
            <path d="M114.274 4.234v21.168h-4.429v-1.182c-1.108 1.072-2.546 1.594-4.318 1.594-1.882 0-3.488-0.687-4.816-2.034-1.302-1.374-1.966-3.134-1.966-5.278 0-2.117 0.664-3.876 1.966-5.251 1.328-1.374 2.934-2.062 4.816-2.062 1.771 0 3.21 0.522 4.318 1.595v-8.55h4.429zM108.82 21.087c0.693-0.687 1.025-1.539 1.025-2.584 0-1.017-0.332-1.87-1.025-2.557-0.664-0.687-1.466-1.017-2.38-1.017-1.965 0-3.35 1.484-3.35 3.574 0 2.117 1.384 3.574 3.35 3.574 0.914 0 1.717-0.33 2.38-0.99z"></path>
            <path d="M131.765 11.192l-9.012 20.808h-4.788l3.072-7.065-5.928-13.744h4.761l3.464 8.466 3.67-8.466h4.761z"></path>
        </symbol>
        <symbol id="icon-Group-7025" viewBox="0 0 59 32">
            <path stroke-linejoin="miter" stroke-linecap="round" stroke-miterlimit="4" stroke-width="4.9231" d="M2.462 3.692h54.154"></path>
            <path stroke-linejoin="miter" stroke-linecap="round" stroke-miterlimit="4" stroke-width="4.9231" d="M2.462 16h54.154"></path>
            <path stroke-linejoin="miter" stroke-linecap="round" stroke-miterlimit="4" stroke-width="4.9231" d="M2.462 28.308h54.154"></path>
        </symbol>
        <symbol id="icon-close" viewBox="0 0 32 32">
            <path d="M9.281 24.031l-1.312-1.312 7.219-7.219-7.219-7.219 1.312-1.312 7.219 7.219 7.219-7.219 1.312 1.312-7.219 7.219 7.219 7.219-1.312 1.312-7.219-7.219-7.219 7.219z"></path>
        </symbol>
        <symbol id="icon-prev" viewBox="0 0 32 32">
            <path fill="#5d78ff" style="fill: var(--color2, #5d78ff)" d="M0 16c0-8.837 7.163-16 16-16s16 7.163 16 16c0 8.837-7.163 16-16 16s-16-7.163-16-16z"></path>
            <path fill="#fff" style="fill: var(--color1, #fff)" d="M16 8.381l1 1.024-5.881 5.881h12.5v1.429h-12.5l5.881 5.881-1 1.024-7.619-7.619 7.619-7.619z"></path>
        </symbol>
        <symbol id="icon-next" viewBox="0 0 32 32">
            <path fill="#5d78ff" style="fill: var(--color2, #5d78ff)" d="M32 16c0 8.837-7.163 16-16 16s-16-7.163-16-16c0-8.837 7.163-16 16-16s16 7.163 16 16z"></path>
            <path fill="#fff" style="fill: var(--color1, #fff)" d="M16 23.619l-1-1.024 5.881-5.881h-12.5v-1.429h12.5l-5.881-5.881 1-1.024 7.619 7.619-7.619 7.619z"></path>
        </symbol>
        <symbol id="icon-popup-logo" viewBox="0 0 49 32">
            <path d="M0.533 18.509v9.291c0 1.683 1.406 3.049 3.142 3.049h8.478v-16.472l-11.62 4.132z"></path>
            <path d="M12.637 14.378l4.15 6.047v10.425l-4.15-5.531v-10.94z"></path>
            <path d="M17.273 11.701v19.148h11.626l-0.006-23.279-11.62 4.132z"></path>
            <path d="M29.377 7.569l4.725 7.962v15.318l-4.723-8.19-0.003-15.090z"></path>
            <path d="M34.587 4.681v26.169h10.013c1.735 0 3.141-1.365 3.141-3.049v-27.801l-13.154 4.681z"></path>
        </symbol>
        <symbol id="icon-popup-close" viewBox="0 0 32 32">
            <path fill="#f3f4f6" style="fill: var(--color2, #f3f4f6)" d="M31.304 16.348c0 8.644-7.008 15.652-15.652 15.652s-15.652-7.008-15.652-15.652c0-8.644 7.008-15.652 15.652-15.652s15.652 7.008 15.652 15.652z"></path>
            <path fill="#001e41" style="fill: var(--color3, #001e41)" d="M10.63 22.283l-0.913-0.913 5.022-5.022-5.022-5.022 0.913-0.913 5.022 5.022 5.022-5.022 0.913 0.913-5.022 5.022 5.022 5.022-0.913 0.913-5.022-5.022-5.022 5.022z"></path>
        </symbol>
        <symbol id="icon-flag_ukr" viewBox="0 0 50 32">
            <path fill="#ffd500" style="fill: var(--color1, #ffd500)" d="M1.778 2.222h45.333v29.333h-45.333v-29.333z"></path>
            <path fill="#005bbb" style="fill: var(--color2, #005bbb)" d="M1.778 0.889h45.333v16h-45.333v-16z"></path>
        </symbol>
        <symbol id="icon-select__arrow" viewBox="0 0 32 32">
            <path d="M15.2 18.8l-6-5.97h12l-6 5.97z"></path>
        </symbol>
        <symbol id="icon-flag_ie" viewBox="0 0 43 32">
            <path fill="#fff" style="fill: var(--color1, #fff)" d="M0 0h42.667v32h-42.667z"></path>
            <path fill="#009a49" style="fill: var(--color2, #009a49)" d="M0 0h14.22v32h-14.22z"></path>
            <path fill="#ff7900" style="fill: var(--color3, #ff7900)" d="M28.447 0h14.22v32h-14.22z"></path>
        </symbol>
        <symbol id="icon-flag_mo" viewBox="0 0 43 32">
            <path fill="#00785e" style="fill: var(--color1, #00785e)" d="M0 0h42.667v32h-42.667z"></path>
            <path fill="#fbd116" style="fill: var(--color2, #fbd116)" d="M19.667 7.247l2.7 1.967-1.033-3.18-1.033 3.18 2.707-1.967z"></path>
            <path fill="#fff" style="fill: var(--color3, #fff)" d="M21.333 22.107h-6.833c-0.083-0.084-0.166-0.171-0.247-0.259l-0.007-0.007h7.087c0.055 0.020 0.093 0.071 0.093 0.132 0 0 0 0.001 0 0.001v-0c0 0.053-0.033 0.113-0.093 0.133zM21.333 20.020c0.056-0.112 0.089-0.243 0.089-0.382 0-0.044-0.003-0.087-0.010-0.129l0.001 0.005c-0.014-0.095-0.042-0.18-0.082-0.258l0.002 0.005c-0.595 0.567-1.321 1.003-2.128 1.256l-0.039 0.011c-0.469 0.148-1.008 0.233-1.566 0.233h-4.207c0.143 0.211 0.27 0.385 0.402 0.554l-0.016-0.021h4.067c1.333 0 2.547-0.48 3.487-1.273zM14.027 18.373c-0.191 0.073-0.411 0.121-0.642 0.133l-0.005 0c0.994 1.126 2.441 1.833 4.053 1.833h0c0 0 0.001 0 0.001 0 1.532 0 2.915-0.639 3.897-1.665l0.002-0.002c0.178-1.168 0.286-2.525 0.3-3.905l0-0.015c0.001-0.093 0.002-0.203 0.002-0.313 0-1.482-0.11-2.938-0.321-4.362l0.020 0.161c-0.44 0.4-1.267 1.247-1.653 2.553-0.135 0.45-0.213 0.968-0.213 1.503 0 0.013 0 0.026 0 0.039v-0.002c0 0 0 0.001 0 0.001 0 1.118 0.341 2.157 0.925 3.018l-0.012-0.019c-0.706-0.901-1.133-2.051-1.133-3.3v-0c0-0.827 0.187-1.613 0.52-2.313-0.225-0.238-0.397-0.529-0.496-0.851l-0.004-0.015c-0.44 0.763-0.7 1.678-0.7 2.654 0 0.005 0 0.009 0 0.014v-0.001c0 1.2 0.393 2.313 1.060 3.207-1.156-1.213-2.784-1.967-4.588-1.967-0.107 0-0.214 0.003-0.32 0.008l0.015-0.001c0.181 0.167 0.332 0.364 0.448 0.582l0.006 0.012c1.798 0.002 3.42 0.753 4.571 1.958l0.002 0.002c-1.092-0.92-2.514-1.479-4.067-1.48h-0c-0.004 0-0.008 0-0.012 0-0.879 0-1.716 0.179-2.476 0.502l0.041-0.016c0.796 2.062 2.762 3.498 5.063 3.498 0.156 0 0.311-0.007 0.463-0.020l-0.020 0.001c-0.313 0.053-0.633 0.087-0.96 0.087-0.003 0-0.006 0-0.010 0-1.459 0-2.782-0.58-3.752-1.521l0.001 0.001zM21.333 24.293h-3.54c1.044 0.426 2.256 0.673 3.526 0.673 0.005 0 0.010 0 0.015 0h-0.001c0.053-0.096 0.084-0.211 0.087-0.333v-0.001c-0.001-0.125-0.033-0.242-0.089-0.344l0.002 0.004zM21.333 22.66h-6.24c0.152 0.13 0.321 0.266 0.495 0.395l0.025 0.018h5.72c0.052-0.054 0.085-0.126 0.087-0.206v-0c0-0.003 0-0.006 0-0.010 0-0.078-0.033-0.148-0.087-0.197l-0-0zM21.333 23.493h-5.113c0.265 0.171 0.579 0.349 0.904 0.508l0.056 0.025h4.153c0.050-0.077 0.080-0.172 0.080-0.273 0-0.002-0-0.005-0-0.007v0c-0.004-0.095-0.033-0.182-0.081-0.255l0.001 0.002z"></path>
            <path fill="#fbd116" style="fill: var(--color2, #fbd116)" d="M13.367 11.653l1.693 1.573-0.447-2.267-0.973 2.093 2.020-1.12zM15.827 9.52l2.313 0.040-1.847-1.4 0.673 2.22 0.753-2.193z"></path>
            <path fill="#fff" style="fill: var(--color3, #fff)" d="M21.333 22.107h6.833c0.083-0.084 0.166-0.171 0.247-0.259l0.006-0.007h-7.087c-0.055 0.020-0.093 0.071-0.093 0.132 0 0 0 0.001 0 0.001v-0c0 0.053 0.033 0.113 0.093 0.133zM21.333 20.020c-0.056-0.112-0.089-0.243-0.089-0.382 0-0.044 0.003-0.087 0.010-0.129l-0.001 0.005c0.014-0.095 0.042-0.18 0.082-0.258l-0.002 0.005c0.595 0.567 1.321 1.003 2.128 1.256l0.039 0.011c0.469 0.148 1.008 0.233 1.566 0.233h4.207c-0.143 0.211-0.27 0.385-0.402 0.554l0.016-0.021h-4.067c-1.333 0-2.547-0.48-3.487-1.273zM28.64 18.373c0.191 0.073 0.411 0.121 0.642 0.133l0.005 0c-0.994 1.126-2.441 1.833-4.053 1.833h-0c-0 0-0.001 0-0.001 0-1.532 0-2.915-0.639-3.897-1.665l-0.002-0.002c-0.178-1.168-0.286-2.525-0.3-3.905l-0-0.015c-0.001-0.093-0.002-0.203-0.002-0.313 0-1.482 0.11-2.938 0.321-4.362l-0.020 0.161c0.44 0.4 1.267 1.247 1.653 2.553 0.135 0.45 0.213 0.968 0.213 1.503 0 0.013-0 0.026-0 0.039v-0.002c0 0 0 0.001 0 0.001 0 1.118-0.341 2.157-0.925 3.018l0.012-0.019c0.706-0.901 1.133-2.051 1.133-3.3v-0c0-0.827-0.187-1.613-0.52-2.313 0.225-0.238 0.397-0.529 0.496-0.851l0.004-0.015c0.44 0.763 0.7 1.678 0.7 2.654 0 0.005 0 0.009-0 0.014v-0.001c0 1.2-0.393 2.313-1.060 3.207 1.156-1.213 2.784-1.967 4.588-1.967 0.107 0 0.214 0.003 0.32 0.008l-0.015-0.001c-0.181 0.167-0.332 0.364-0.448 0.582l-0.006 0.012c-1.798 0.002-3.42 0.753-4.571 1.958l-0.002 0.002c1.092-0.92 2.514-1.479 4.067-1.48h0c0.004 0 0.008 0 0.012 0 0.879 0 1.715 0.179 2.476 0.502l-0.041-0.016c-0.796 2.062-2.762 3.498-5.063 3.498-0.156 0-0.311-0.007-0.463-0.020l0.020 0.001c0.313 0.053 0.633 0.087 0.96 0.087 0.003 0 0.006 0 0.010 0 1.459 0 2.782-0.58 3.752-1.521l-0.001 0.001zM21.333 24.293h3.54c-1.044 0.426-2.256 0.673-3.526 0.673-0.005 0-0.010 0-0.015 0h0.001c-0.053-0.096-0.084-0.211-0.087-0.333v-0.001c0.001-0.125 0.033-0.242 0.089-0.344l-0.002 0.004zM21.333 22.66h6.24c-0.152 0.13-0.321 0.266-0.495 0.395l-0.025 0.018h-5.72c-0.052-0.054-0.085-0.126-0.087-0.206v-0c-0-0.003-0-0.006-0-0.010 0-0.078 0.033-0.148 0.087-0.197l0-0zM21.333 23.493h5.113c-0.265 0.171-0.579 0.349-0.904 0.508l-0.056 0.025h-4.153c-0.050-0.077-0.080-0.172-0.080-0.273 0-0.002 0-0.005 0-0.007v0c0.004-0.095 0.033-0.182 0.081-0.255l-0.001 0.002z"></path>
            <path fill="#fbd116" style="fill: var(--color2, #fbd116)" d="M29.3 11.653l-1.693 1.573 0.447-2.267 0.973 2.093-2.020-1.12zM26.84 9.52l-2.313 0.040 1.847-1.4-0.673 2.22-0.753-2.193z"></path>
        </symbol>
    </defs>
</svg>
    